name Walk9.mot
datacolumns 19
datarows 17
range 1.68100000 1.69700000
endheader

                time	   L_ground_force_vx	   L_ground_force_vy	   L_ground_force_vz	   L_ground_force_px	   L_ground_force_py	   L_ground_force_pz	   R_ground_force_vx	   R_ground_force_vy	   R_ground_force_vz	   R_ground_force_px	   R_ground_force_py	   R_ground_force_pz	   L_ground_torque_x	   L_ground_torque_y	   L_ground_torque_z	   R_ground_torque_x	   R_ground_torque_y	   R_ground_torque_z	
          1.68100000	          0.46014784	        682.85112232	         49.33730937	         -0.23322472	          0.00000000	         -0.08202067	          0.00000000	          0.00000000	          0.00000000	          0.00000000	          0.00000000	          0.00000000	          0.00000000	          2.22730437	          0.00000000	          0.00000000	          0.00000000	          0.00000000	
          1.68200000	          0.69244506	        684.37537243	         49.44643824	         -0.23281649	          0.00000000	         -0.08200867	          0.00000000	          0.00000000	          0.00000000	          0.00000000	          0.00000000	          0.00000000	          0.00000000	          2.21000795	          0.00000000	          0.00000000	          0.00000000	          0.00000000	
          1.68300000	          0.97608946	        686.01140022	         49.57419878	         -0.23242730	          0.00000000	         -0.08192869	          0.00000000	          0.00000000	          0.00000000	          0.00000000	          0.00000000	          0.00000000	          0.00000000	          2.18958852	          0.00000000	          0.00000000	          0.00000000	          0.00000000	
          1.68400000	          1.27571242	        687.74114300	         49.71814941	         -0.23203299	          0.00000000	         -0.08180444	          0.00000000	          0.00000000	          0.00000000	          0.00000000	          0.00000000	          0.00000000	          0.00000000	          2.18103529	          0.00000000	          0.00000000	          0.00000000	          0.00000000	
          1.68500000	          1.55420993	        689.49056522	         49.85267311	         -0.23162386	          0.00000000	         -0.08168637	          0.00000000	          0.00000000	          0.00000000	          0.00000000	          0.00000000	          0.00000000	          0.00000000	          2.19378939	          0.00000000	          0.00000000	          0.00000000	          0.00000000	
          1.68600000	          1.79570823	        691.21282721	         49.95563416	         -0.23121237	          0.00000000	         -0.08160741	          0.00000000	          0.00000000	          0.00000000	          0.00000000	          0.00000000	          0.00000000	          0.00000000	          2.22405208	          0.00000000	          0.00000000	          0.00000000	          0.00000000	
          1.68700000	          2.00363526	        692.93856767	         50.03055986	         -0.23081750	          0.00000000	         -0.08156000	          0.00000000	          0.00000000	          0.00000000	          0.00000000	          0.00000000	          0.00000000	          0.00000000	          2.26148679	          0.00000000	          0.00000000	          0.00000000	          0.00000000	
          1.68800000	          2.18865470	        694.71869584	         50.09445000	         -0.23044403	          0.00000000	         -0.08152384	          0.00000000	          0.00000000	          0.00000000	          0.00000000	          0.00000000	          0.00000000	          0.00000000	          2.29563666	          0.00000000	          0.00000000	          0.00000000	          0.00000000	
          1.68900000	          2.36233614	        696.55345515	         50.16037252	         -0.23008025	          0.00000000	         -0.08148871	          0.00000000	          0.00000000	          0.00000000	          0.00000000	          0.00000000	          0.00000000	          0.00000000	          2.31641150	          0.00000000	          0.00000000	          0.00000000	          0.00000000	
          1.69000000	          2.54158569	        698.41048199	         50.23087396	         -0.22972091	          0.00000000	         -0.08144712	          0.00000000	          0.00000000	          0.00000000	          0.00000000	          0.00000000	          0.00000000	          0.00000000	          2.31698734	          0.00000000	          0.00000000	          0.00000000	          0.00000000	
          1.69100000	          2.74689866	        700.26486198	         50.29420188	         -0.22937585	          0.00000000	         -0.08139660	          0.00000000	          0.00000000	          0.00000000	          0.00000000	          0.00000000	          0.00000000	          0.00000000	          2.29853858	          0.00000000	          0.00000000	          0.00000000	          0.00000000	
          1.69200000	          2.98933988	        702.09974299	         50.33174510	         -0.22904696	          0.00000000	         -0.08135404	          0.00000000	          0.00000000	          0.00000000	          0.00000000	          0.00000000	          0.00000000	          0.00000000	          2.27229723	          0.00000000	          0.00000000	          0.00000000	          0.00000000	
          1.69300000	          3.26645296	        703.92064793	         50.33721119	         -0.22871852	          0.00000000	         -0.08134227	          0.00000000	          0.00000000	          0.00000000	          0.00000000	          0.00000000	          0.00000000	          0.00000000	          2.25489033	          0.00000000	          0.00000000	          0.00000000	          0.00000000	
          1.69400000	          3.56868106	        705.77561032	         50.32356696	         -0.22837717	          0.00000000	         -0.08136206	          0.00000000	          0.00000000	          0.00000000	          0.00000000	          0.00000000	          0.00000000	          0.00000000	          2.25629618	          0.00000000	          0.00000000	          0.00000000	          0.00000000	
          1.69500000	          3.88800590	        707.71999537	         50.30971795	         -0.22802508	          0.00000000	         -0.08139323	          0.00000000	          0.00000000	          0.00000000	          0.00000000	          0.00000000	          0.00000000	          0.00000000	          2.27386667	          0.00000000	          0.00000000	          0.00000000	          0.00000000	
          1.69600000	          4.22655527	        709.77641324	         50.30779214	         -0.22767177	          0.00000000	         -0.08141614	          0.00000000	          0.00000000	          0.00000000	          0.00000000	          0.00000000	          0.00000000	          0.00000000	          2.29912712	          0.00000000	          0.00000000	          0.00000000	          0.00000000	
          1.69700000	          4.59087352	        711.93926743	         50.32002785	         -0.22732266	          0.00000000	         -0.08142250	          0.00000000	          0.00000000	          0.00000000	          0.00000000	          0.00000000	          0.00000000	          0.00000000	          2.32438231	          0.00000000	          0.00000000	          0.00000000	          0.00000000	
